HIERARCHY
ROOT root
{
	OFFSET 0.000000 0.000000 0.000000
	CHANNELS 6 Xposition Yposition Zposition Zrotation Yrotation Xrotation
	JOINT lhip
	{
		OFFSET 0.058581 -0.082280 -0.017664
		CHANNELS 3 Zrotation Yrotation Xrotation
		JOINT lknee
		{
			OFFSET 0.043451 -0.386469 0.008037
			CHANNELS 3 Zrotation Yrotation Xrotation
			JOINT lankle
			{
				OFFSET -0.014790 -0.426874 -0.037428
				CHANNELS 3 Zrotation Yrotation Xrotation
				JOINT ltoe
				{
					OFFSET 0.041054 -0.060286 0.122042
					CHANNELS 3 Zrotation Yrotation Xrotation
					End Site
					{
						OFFSET 0.000000 0.000000 0.000000
					}
				}
			}
		}
	}
	JOINT rhip
	{
		OFFSET -0.060310 -0.090513 -0.013543
		CHANNELS 3 Zrotation Yrotation Xrotation
		JOINT rknee
		{
			OFFSET -0.043257 -0.383688 -0.004843
			CHANNELS 3 Zrotation Yrotation Xrotation
			JOINT rankle
			{
				OFFSET 0.019056 -0.420046 -0.034562
				CHANNELS 3 Zrotation Yrotation Xrotation
				JOINT rtoe
				{
					OFFSET -0.034840 -0.062106 0.130323
					CHANNELS 3 Zrotation Yrotation Xrotation
					End Site
					{
						OFFSET 0.000000 0.000000 0.000000
					}
				}
			}
		}
	}
	JOINT lowerback
	{
		OFFSET 0.004439 0.124404 -0.038385
		CHANNELS 3 Zrotation Yrotation Xrotation
		JOINT upperback
		{
			OFFSET 0.004488 0.137956 0.026820
			CHANNELS 3 Zrotation Yrotation Xrotation
			JOINT chest
			{
				OFFSET -0.002265 0.056032 0.002855
				CHANNELS 3 Zrotation Yrotation Xrotation
				JOINT lowerneck
				{
					OFFSET -0.013390 0.211636 -0.033468
					CHANNELS 3 Zrotation Yrotation Xrotation
					JOINT upperneck
					{
						OFFSET 0.010113 0.088937 0.050410
						CHANNELS 3 Zrotation Yrotation Xrotation
						End Site
						{
							OFFSET 0.000000 0.000000 0.000000
						}
					}
				}
				JOINT lclavicle
				{
					OFFSET 0.071702 0.114000 -0.018898
					CHANNELS 3 Zrotation Yrotation Xrotation
					JOINT lshoulder
					{
						OFFSET 0.122921 0.045205 -0.019046
						CHANNELS 3 Zrotation Yrotation Xrotation
						JOINT lelbow
						{
							OFFSET 0.255332 -0.015649 -0.022946
							CHANNELS 3 Zrotation Yrotation Xrotation
							JOINT lwrist
							{
								OFFSET 0.265709 0.012698 -0.007375
								CHANNELS 3 Zrotation Yrotation Xrotation
								End Site
								{
									OFFSET 0.000000 0.000000 0.000000
								}
							}
						}
					}
				}
				JOINT rclavicle
				{
					OFFSET -0.082954 0.112472 -0.023707
					CHANNELS 3 Zrotation Yrotation Xrotation
					JOINT rshoulder
					{
						OFFSET -0.113228 0.046853 -0.008472
						CHANNELS 3 Zrotation Yrotation Xrotation
						JOINT relbow
						{
							OFFSET -0.260127 -0.014369 -0.031269
							CHANNELS 3 Zrotation Yrotation Xrotation
							JOINT rwrist
							{
								OFFSET -0.269108 0.006794 -0.006027
								CHANNELS 3 Zrotation Yrotation Xrotation
								End Site
								{
									OFFSET 0.000000 0.000000 0.000000
								}
							}
						}
					}
				}
			}
		}
	}
}
MOTION
Frames: 5
Frame Time: 0.033333
0.004374 1.016994 0.982233 -10.897424 -3.535222 83.814758 -4.996965 -8.109153 -15.385004 -1.693311 -6.534776 11.964072 3.734149 9.690029 -5.286541 0.000000 -0.000000 0.000000 2.705327 -2.946296 18.017515 -1.316435 4.624288 11.311610 0.538964 -9.443564 -18.269601 0.000000 -0.000000 0.000000 -3.561051 9.979080 6.557205 -2.963186 -3.069425 14.766640 -2.460998 3.193284 -2.482246 0.698893 2.917287 1.507456 7.296771 1.780234 0.902593 -28.270711 -5.426641 1.053689 -44.430816 -1.807914 11.324404 2.807869 -22.594914 -1.391042 -6.452536 -2.830745 1.009592 31.223088 13.117646 9.184966 53.276562 7.938453 13.693570 -10.201849 24.749768 -12.042871 4.813635 7.243319 -5.968177 
0.001331 0.988212 0.985019 -11.413050 -3.462999 83.974461 -5.132392 -8.429123 -14.322110 -2.153126 -7.020835 13.225041 3.941512 9.890829 -4.815049 0.000000 -0.000000 0.000000 2.194290 -2.317306 17.339252 -0.473894 4.631684 15.970976 1.493101 -8.719989 -15.969033 0.000000 -0.000000 0.000000 -3.858475 9.622317 5.776216 -3.088813 -3.055960 15.064043 -2.797603 3.111478 -2.768202 0.912980 3.443209 1.536361 7.253862 2.413579 1.422388 -28.641104 -5.641969 1.426285 -44.282404 -1.876818 11.086087 3.154133 -20.313240 -1.696737 -6.916112 -2.718339 1.792673 31.557145 13.018334 9.420096 53.560562 7.950731 13.814365 -10.036874 23.636166 -11.838690 4.739301 7.049607 -5.274194 
-0.001670 0.959014 0.988793 -11.796366 -3.332952 83.900217 -5.229143 -8.341848 -12.526691 -2.706598 -6.978052 14.147707 4.833466 10.482142 -5.519497 0.000000 -0.000000 0.000000 1.526219 -1.733271 15.322264 0.741542 4.110085 23.205622 2.787686 -7.669048 -12.209006 0.000000 -0.000000 0.000000 -4.129670 8.986899 5.192151 -3.054476 -2.890379 15.116170 -3.101377 2.895300 -2.886732 1.127319 3.949665 1.716053 6.927840 2.995801 1.910121 -28.681377 -5.902916 1.734607 -44.751279 -2.227862 10.862043 3.541337 -17.411195 -2.210488 -7.357324 -2.061627 2.330956 31.363013 12.838364 9.496701 54.302545 7.990386 14.028504 -9.631572 22.213909 -11.670000 5.023554 6.562192 -5.360951 
-0.004521 0.931189 0.992444 -12.136056 -3.273069 83.616505 -5.555430 -7.952371 -10.106167 -3.167817 -7.284703 14.101058 6.142593 11.009627 -6.305710 0.000000 -0.000000 0.000000 0.718636 -0.950526 11.749793 2.261041 3.237142 32.746069 4.050245 -6.225152 -7.192996 0.000000 -0.000000 0.000000 -4.551255 8.091200 4.995663 -2.839098 -2.688290 15.394058 -3.332962 2.687965 -3.263968 1.110578 4.553430 1.643835 6.531721 3.516441 2.238292 -28.612977 -6.431350 1.948666 -45.620681 -2.716868 10.544175 4.168738 -14.485712 -3.672082 -7.875977 -1.343919 2.688164 31.249599 12.801412 9.711349 54.694416 7.937791 14.196455 -9.841797 21.607099 -11.836207 5.655075 6.170252 -5.070073 
-0.007703 0.904640 0.994844 -12.617106 -3.232238 83.003893 -6.006496 -7.570706 -7.398738 -3.409908 -7.515588 14.126357 7.303943 11.770226 -7.509189 0.000000 -0.000000 0.000000 0.111338 -0.320232 7.830108 3.059594 2.309978 42.419072 4.827502 -5.661979 -3.761953 0.000000 -0.000000 0.000000 -4.959375 7.174124 5.330182 -2.565458 -2.479926 15.543073 -3.508875 2.507525 -3.546068 1.108625 5.197518 1.267693 6.037330 4.283032 2.519024 -28.536369 -7.053387 1.948718 -46.385606 -3.240128 10.458801 4.499608 -12.344361 -4.863289 -8.100683 -0.458507 2.834482 31.226202 12.857615 9.692581 54.769286 7.797875 14.350740 -9.942407 21.106836 -12.376999 6.038292 6.178962 -5.681835 
